<?xml version="1.0" standalone="no"?>
<svg version="1.1" xmlns="http://www.w3.org/2000/svg" viewBox="0 0 1200 800">
<path stroke="red" stroke-width="3" fill="none" d="M597.344 357.46099999999996C476.10600000000005 357.46099999999996 365.95400000000006 372.037 284.40500000000003 395.78999999999996L284.40500000000003 598.691C365.95400000000006 622.4449999999999 476.10600000000005 637.02 597.344 637.02C736.104 637.02 860.3310000000001 617.928 943.7750000000001 587.834L943.7750000000001 406.65C860.3310000000001 376.555 736.104 357.46099999999996 597.344 357.46099999999996M1068.75 522.322L1054.539 492.8810000000001C1054.612 491.76300000000003 1054.67 490.64400000000006 1054.67 489.5210000000001C1054.67 456.1460000000001 1019.9639999999999 425.3860000000001 961.573 400.759L961.573 578.2850000000001C988.818 566.793 1010.921 553.9680000000001 1026.729 540.1600000000001C1022.077 558.8670000000001 1006.165 596.7130000000001 993.479 623.3280000000001C972.629 661.394 965.079 694.5310000000001 966.047 696.172C966.664 697.205 973.777 686.2320000000001 984.266 668.451C1008.676 633.6700000000001 1054.93 567.269 1064.175 550.355C1074.647 531.181 1068.75 522.322 1068.75 522.322M149.064 491.46700000000004C149.064 497.89500000000004 150.357 504.22700000000003 152.852 510.43600000000004L144.34099999999998 525.586C144.34099999999998 525.586 137.523 534.432 149.529 553.094C160.119 569.5490000000001 213.164 633.961 241.161 667.692C253.187 684.985 261.34 695.6370000000001 262.054 694.6080000000001C263.178 692.975 254.57799999999997 660.508 230.695 623.4670000000001C219.551 603.572 206.24099999999999 577.215 198.253 557.7460000000001C220.55599999999998 571.8620000000001 249.736 584.666 284.405 595.686L284.405 387.2510000000001C200.861 413.79900000000004 149.064 450.6840000000001 149.064 491.46700000000004M582.0646253 48.63733320000006L554.2888939 95.02934660000005C549.7756519 95.42420479999998 545.2624099 95.81906300000003 540.7491679 96.21392120000007L504.65311399999996 56.16793930000006C501.2494278 51.91793610000002 495.7865497 50.121983 490.58691039999997 51.334857899999975C485.38727109999996 52.54773280000006 481.2030776 56.703625999999986 479.34131479999996 61.4142971L461.118545 113.03425010000001C456.6711127 114.18131530000005 452.2236804 115.32838049999998 448.5942648 117.16184299999998L405.56842819999997 84.54382110000006C401.54415439999997 81.86404160000006 395.394879 80.88610520000009 391.0132564 82.78537740000013C385.94523649999996 85.5026663000001 382.51324999999997 89.59274980000009 381.4695039 94.98981820000006L372.6022666 149.58108979999997C368.972851 151.41455230000008 365.40924509999996 154.00022180000008 361.02762249999995 155.89949400000012L313.591863 133.52083100000004C308.8153822 130.90686119999998 302.7977262 131.4333388 298.547723 134.83702500000004C294.2319101 137.48850419999997 291.68375000000003 143.01719200000002 291.3922109 148.34845069999994L293.187491 203.52280050000013C290.3760921 206.04266030000008 286.87829589999996 209.38053680000007 283.31469 211.96620629999995L232.22121459999994 199.76109250000002C226.75833649999998 197.9651394 221.62450689999997 199.93022129999997 217.44031339999998 204.08611450000012C213.9425172 207.42399100000011 212.21237380000002 213.63907610000012 213.4252487 218.83871539999996L225.6856171 272.33952239999996C222.94002790000002 275.61158920000014 220.19443869999998 278.8836560000001 217.51465919999998 282.90792980000003L164.26788189999996 280.74474580000003C158.93662319999999 280.4532067000001 153.86860329999996 283.1704956000001 151.25463349999995 287.9469764000001C148.6406637 292.72345720000004 147.66272730000003 298.87273260000006 150.38001620000006 303.94075250000003L172.15583679999992 353.5772054C169.47605729999992 357.6014792 167.54848479999998 361.55994330000004 165.6209123 365.5184074L114.11348750000002 374.57251870000005C108.09583150000003 375.0989963 103.91163799999993 379.2548895 102.04987519999997 383.96556060000006C100.25392209999995 389.4284387000001 100.78039969999998 395.44609470000006 103.43187890000002 399.76190760000003L134.59153230000004 444.0295924C133.90513500000003 444.8476091 133.97094470000002 445.5998161 134.03675440000006 446.3520231L46.62935880000009 538.8912293C46.62935880000009 538.8912293 33.87934919999998 549.1022879 52.73124270000005 573.9817195C69.74967370000002 595.2317355 157.57820880000003 680.7773683 203.97943129999993 725.9854801C223.38610269999998 748.5424810000001 236.7376087 762.5336658 238.17621300000002 761.6498394C240.2354049 759.1957893 229.02799170000003 717.7302943 190.70361709999997 669.5416548000001C161.1141874 625.8945576 122.6489843 558.7691237 131.08318100000002 551.2095443000001C131.08318100000002 551.2095443000001 141.31333080000002 538.1870868 162.46923680000003 528.7565354999999C162.46923680000003 528.7565354999999 162.46923680000003 528.7565354999999 162.46923680000003 528.7565354999999C161.65122010000005 528.0701382 161.65122010000005 528.0701382 162.46923680000003 528.7565354999999C162.46923680000003 528.7565354999999 597.6653493 729.4405958 1001.0569585000001 531.9439143C1047.2989343 523.3504709 1075.2431215 548.1923931 1075.2431215 548.1923931C1084.8618928 554.1725397 1059.8126594 623.0649534 1039.558998 668.7988698C1011.4917275 720.5221419 1007.4575715999999 761.0472099 1009.845812 762.3541948C1011.4160357000001 762.9747824 1021.4487564 747.6957039 1035.9572097 722.9294735C1071.809789 673.5569324 1138.5785471 579.0335531000001 1150.9619988 555.9691658C1165.3388327 529.6985214000001 1151.0093903 521.856612 1151.0093903 521.856612L1057.8588055999999 453.4518205C1056.8433598 450.5088022 1055.827914 447.56578390000004 1055.4988655 443.8047489L1085.728647 399.4719274C1089.1606335000001 395.38184390000004 1089.3863629 389.29837820000006 1087.421281 384.1645486C1085.4561991 379.030719 1081.3661156 375.5987325 1075.9690472 374.5549864L1023.6343966 365.49032C1021.8009341 361.8609044 1019.9016618999999 357.4792818 1018.0681993999999 353.8498662L1039.4314166 303.47108840000004C1042.0453864 298.6946076 1041.5189088 292.6769516 1038.0494128999999 287.6747414C1035.3979337 283.35892850000005 1030.6214529 280.7449587 1025.3560039 281.20562659999996L972.4382751 282.80347759999995C969.8526056000001 279.2398717 966.5147291000001 275.74207549999994 963.9290596 272.17846959999997L975.9367443 218.8283732000001C976.9804904 213.43130480000002 975.7018058 207.47945850000008 972.3639293 203.98166229999993C968.2080361000001 199.79746879999993 962.745158 198.00151570000003 957.5455187 199.2143906L906.3671424 212.02953689999993C903.0950756 209.2839477 899.8230088 206.53835849999996 896.4851323 203.04056230000003L897.7644899 148.35518070000012C898.056029 143.02392199999997 895.3387401 137.9559021 891.2486566 134.5239156C886.4063661 131.15773880000006 881.0751074 130.86619970000004 876.0070874999999 133.5834886L828.6930653 155.91408710000007C824.7346012 153.98651460000008 820.7103274 151.30673510000008 816.7518633 149.37916259999997L808.2525299 95.54930709999996C807.7260523 89.53165109999998 803.5701591 85.34745759999998 798.859488 83.48569480000003C794.0830072 80.87172499999997 788.0653511999999 81.39820259999999 783.815348 84.80188880000003L741.1178869 116.58212979999996C737.2252325 115.40676429999996 733.3325781 114.23139879999997 728.6877167 113.12184300000001L710.5413117 61.65192760000002C708.5762298 56.51809800000012 704.4203365999999 52.33390450000013 699.0232682 51.290158399999996C693.6261998 50.246412299999974 688.4923702 52.21149419999995 684.3081767 56.3673874000001L648.418088 96.64763479999999C644.5912433 96.22447629999999 639.9463819 95.11492050000004 635.3673302 94.75757169999997L607.8370924 48.65642439999999C605.1198035 43.588404500000024 600.3433227 40.97443469999996 595.012064 40.68289560000005C589.6808053 40.39135650000014 584.6785950999999 43.8608524 582.0646253 48.63733320000006ZM162.46923680000003 528.7565354999999C162.46923680000003 528.7565354999999 162.46923680000003 528.7565354999999 162.46923680000003 528.7565354999999C162.46923680000003 528.7565354999999 162.46923680000003 528.7565354999999 162.46923680000003 528.7565354999999ZM450.328 650.9590000000001C448.664 649.539 447.792 648.697 447.792 648.697L590.334 637.02C474.061 483.629 380.90999999999997 605.822 370.995 619.484L370.995 650.9590000000001L450.328 650.9590000000001ZM747.12 649.307C748.783 647.8870000000001 749.656 647.043 749.656 647.043L612.672 637.02C729 477.333 816.541 604.168 826.455 617.83L826.455 649.307L747.12 649.307ZM966.0506307 497.0189910342C966.0506307 497.0189910342 950.5523962496001 559.0119439216 853.5548069828001 624.2114334755L826.5664963500001 630.6244990208C826.5664963500001 630.6244990208 738.6540681700001 470.29790405449995 614.1337525128 650.9325471843C614.1337525128 650.9325471843 652.8793462276001 628.4868209658 756.8244268035 656.0095480141C756.8244268035 656.0095480141 708.9936619957 729.2253647528 612.797701858 726.8204712608C612.797701858 726.8204712608 704.9855032075 837.7130309823 845.5384800428001 677.6536339345C845.5384800428001 677.6536339345 994.1077927533 620.2032604277 1006.1322807 497.0189887392L966.0506307 497.0189910342ZM677.392 417.547C677.392 417.547 720.878 369.932 764.3660000000001 417.547C764.3660000000001 417.547 798.5360000000001 481.039 764.3660000000001 512.7810000000001C764.3660000000001 512.7810000000001 708.4540000000001 557.225 677.392 512.7810000000001C677.392 512.7810000000001 640.1170000000001 477.86 677.392 417.547M727.738 435.211C727.738 453.752 716.8080000000001 468.783 703.33 468.783C689.8530000000001 468.783 678.9240000000001 453.752 678.9240000000001 435.211C678.9240000000001 416.67 689.8530000000001 401.637 703.33 401.637C716.8080000000001 401.637 727.738 416.67 727.738 435.211M483.3 404.54499999999996C483.3 404.54499999999996 557.896 371.51699999999994 578.256 445.236C578.256 445.236 599.583 531.162 516.9970000000001 536.012C516.9970000000001 536.012 411.687 515.7289999999999 483.3 404.54499999999996M520.766 436.428C520.766 455.547 509.496 471.055 495.59299999999996 471.055C481.69499999999994 471.055 470.42199999999997 455.547 470.42199999999997 436.428C470.42199999999997 417.304 481.69499999999994 401.801 495.59299999999996 401.801C509.496 401.801 520.766 417.304 520.766 436.428M371.3272853849 687.6672949737C507.5692665692 862.3916372527 572.1049275881 722.0863061217001 572.1049275881 722.0863061217001C495.6182070373 713.4815550177 441.3604367784 662.5700854908 441.3604367784 662.5700854908C533.1445000287 650.8580506156001 586.2071619675 649.901963219 586.2071619675 649.901963219C463.3503575941 487.84573308320006 363.6786099883 634.6046334633 363.6786099883 634.6046334633C338.8204254069 625.5218370545001 313.2451761884 590.8637936916 294.3625151382 558.8349809003L218.1148147 536.3670117810001C305.8355312472 685.5161101659 371.3272853849 687.6672949737 371.3272853849 687.6672949737Z"/>
</svg>